<!--?xml version="1.0" encoding="utf-8"?-->
<svg xmlns="http://www.w3.org/2000/svg" viewBox="0 0 1440 320" preserveAspectRatio="xMidYMax slice">
  <defs>
    <!-- sky gradient -->
    <linearGradient id="skyGrad" x1="0" x2="1" y1="0" y2="1">
      <stop offset="0%" stop-color="#1a052a"></stop>
      <stop offset="40%" stop-color="#12062f"></stop>
      <stop offset="100%" stop-color="#001231"></stop>
    </linearGradient>

    <!-- purple-blue accent gradient for wave -->
    <linearGradient id="waveGrad" x1="0" x2="1" y1="0" y2="0">
      <stop offset="0%" stop-color="#8B008B"></stop>
      <stop offset="100%" stop-color="#002bff"></stop>
    </linearGradient>

    <!-- subtle star glow -->
    <filter id="glow">
      <feGaussianBlur stdDeviation="1.2" result="blur"></feGaussianBlur>
      <feMerge><feMergeNode in="blur"></feMergeNode><feMergeNode in="SourceGraphic"></feMergeNode></feMerge>
    </filter>
  </defs>

  <!-- Sky background -->
  <rect width="1440" height="320" fill="url(#skyGrad)"></rect>

  <!-- Stars (randomised positions) -->
  <g fill="#c7d6df" fill-opacity="0.85" filter="url(#glow)">
    <circle cx="120" cy="60" r="2.5"></circle>
    <circle cx="220" cy="40" r="1.8"></circle>
    <circle cx="340" cy="75" r="2.2"></circle>
    <circle cx="480" cy="50" r="1.6"></circle>
    <circle cx="620" cy="30" r="1.8"></circle>
    <circle cx="760" cy="70" r="2.4"></circle>
    <circle cx="920" cy="55" r="2.0"></circle>
    <circle cx="1080" cy="45" r="1.7"></circle>
    <circle cx="1220" cy="68" r="2.6"></circle>
    <circle cx="1360" cy="38" r="1.5"></circle>
  </g>

  <!-- Moon -->
  <g transform="translate(1100,80)">
    <circle cx="0" cy="0" r="24" fill="#f5f3f8" fill-opacity="0.95"></circle>
    <circle cx="-7" cy="-5" r="6" fill="#e9e6ee" fill-opacity="0.12"></circle>
  </g>

  <!-- Distant mountain layer (farthest) -->
  <path d="M0 220 C120 200 240 190 360 198 C480 206 600 220 720 212 C840 204 960 180 1080 186 C1200 192 1320 220 1440 215 L1440 320 L0 320 Z" fill="#0b2230" fill-opacity="0.55"></path>

  <!-- Middle mountain layer -->
  <path d="M0 240 C150 230 300 210 450 220 C600 230 750 250 900 240 C1050 230 1200 235 1440 230 L1440 320 L0 320 Z" fill="#06222a" fill-opacity="0.75"></path>

  <!-- Foreground mountain layer (dark) -->
  <path d="M0 270 C180 250 360 260 540 250 C720 240 900 260 1080 250 C1260 240 1380 260 1440 266 L1440 320 L0 320 Z" fill="#04141b"></path>

  <!-- Wavy top edge (the valley/wave) - gradient fill -->
  <path d="M0 120 C150 70 300 90 450 110 C600 130 750 80 900 88 C1050 96 1200 140 1440 120 L1440 320 L0 320 Z" fill="url(#waveGrad)" opacity="0.95"></path>

  <!-- Transparent overlay to create depth on wave top (soft highlight) -->
  <path d="M0 125 C150 85 300 100 450 115 C600 130 750 95 900 100 C1050 105 1200 135 1440 125 L1440 320 L0 320 Z" fill="#ffffff" fill-opacity="0.04"></path>

</svg>
